<svg width="61" height="61" viewBox="0 0 61 61" fill="none" xmlns="http://www.w3.org/2000/svg">
<path d="M0 30.5C0 13.6553 13.6553 0 30.5 0C47.3448 0 61 13.6553 61 30.5C61 47.3448 47.3448 61 30.5 61C13.6553 61 0 47.3448 0 30.5Z" fill="#C0C0C0"/>
<path d="M30.5 37.2776C37.9865 37.2776 44.0556 31.2086 44.0556 23.7221C44.0556 16.2355 37.9865 10.1665 30.5 10.1665C23.0135 10.1665 16.9445 16.2355 16.9445 23.7221C16.9445 31.2086 23.0135 37.2776 30.5 37.2776Z" fill="#F1F1F1"/>
<path fill-rule="evenodd" clip-rule="evenodd" d="M51.582 51.6675C51.7792 51.9942 51.7189 52.4124 51.4417 52.674C45.9785 57.8353 38.609 60.9998 30.5 60.9998C22.3914 60.9998 15.0218 57.8356 9.55864 52.6744C9.28143 52.4124 9.22124 51.9945 9.41837 51.6679C13.3637 45.1331 21.3234 40.6665 30.5004 40.6665C39.6768 40.6665 47.6366 45.1327 51.582 51.6675Z" fill="#F1F1F1"/>
</svg>
