<svg width="278" height="116" viewBox="0 0 278 116" fill="none" xmlns="http://www.w3.org/2000/svg">
<path d="M177.796 52.6644L177.293 84.6604L207.396 103.802L238.086 85.6154L238.588 53.6194L208.485 34.4775L177.796 52.6644Z" stroke="#04BF68" stroke-opacity="0.35" stroke-width="3"/>
<path d="M203.272 23.4795L201.205 46.5873L221.913 62.0264L245.031 50.5063L247.097 27.3985L226.39 11.9595L203.272 23.4795Z" stroke="#04BF68" stroke-opacity="0.35" stroke-width="3"/>
<path d="M58.9138 28.2909L57.705 75.0753L101.385 103.513L146.475 77.3688L147.684 30.5844L104.004 2.14676L58.9138 28.2909Z" stroke="#22397C" stroke-opacity="0.7" stroke-width="3"/>
<path d="M249.031 89.4996L249.084 103.9L262.714 112.25L276.283 103.8L276.231 89.3999L262.6 81.0498L249.031 89.4996Z" stroke="#04BF68" stroke-opacity="0.35" stroke-width="3"/>
<path d="M34.1756 65.5366L34.4766 96.3351L63.8508 114.016L92.8738 95.7643L92.5728 64.9658L63.1986 47.2854L34.1756 65.5366Z" stroke="#22397C" stroke-opacity="0.7" stroke-width="3"/>
<path d="M1.63578 24.9355L4.43998 44.7379L25.0861 53.5973L42.4607 39.3539L39.6565 19.5514L19.0103 10.692L1.63578 24.9355Z" stroke="#22397C" stroke-opacity="0.7" stroke-width="3"/>
</svg>
