<svg width="17" height="19" viewBox="0 0 17 19" fill="none" xmlns="http://www.w3.org/2000/svg">
<path d="M17 17C17 17.501 16.801 17.9814 16.4468 18.3356C16.0925 18.6899 15.6121 18.8889 15.1111 18.8889H1.88889C1.38792 18.8889 0.907478 18.6899 0.553243 18.3356C0.199007 17.9814 0 17.501 0 17C0.00936642 15.2793 0.605765 13.6134 1.69056 12.2778C1.98904 11.9127 2.41329 11.6725 2.87991 11.6043C3.34654 11.5361 3.82178 11.645 4.21222 11.9094C5.47566 12.7678 6.96785 13.2267 8.49528 13.2267C10.0227 13.2267 11.5149 12.7678 12.7783 11.9094C13.1695 11.6422 13.6469 11.5318 14.1157 11.6C14.5845 11.6682 15.0106 11.9101 15.3094 12.2778C16.3942 13.6134 16.9906 15.2793 17 17ZM8.5 11.3333C9.62076 11.3333 10.7164 11.001 11.6482 10.3783C12.5801 9.75567 13.3064 8.87066 13.7353 7.83521C14.1642 6.79976 14.2764 5.66038 14.0578 4.56116C13.8391 3.46193 13.2994 2.45223 12.5069 1.65973C11.7144 0.867233 10.7047 0.327536 9.60551 0.108886C8.50629 -0.109764 7.36691 0.00245529 6.33146 0.431352C5.29601 0.860248 4.411 1.58656 3.78834 2.51844C3.16568 3.45032 2.83333 4.54591 2.83333 5.66667C2.83333 7.16956 3.43036 8.6109 4.49306 9.67361C5.55577 10.7363 6.99711 11.3333 8.5 11.3333Z" fill="#D7D7D9" stroke="black" stroke-width="0.00024"/>
</svg>
