<svg width="20" height="23" viewBox="0 0 20 23" fill="none" xmlns="http://www.w3.org/2000/svg">
<path d="M17.25 9.49999H16.5003V6.75001C16.5002 3.02787 13.4724 0 9.75025 0C6.02811 0 3.00024 3.02787 3.00024 6.75001V9.49999H2.25C1.0093 9.49999 0 10.5093 0 11.75V20.75C0 21.9907 1.0093 23 2.25 23H17.25C18.4907 23 19.5 21.9907 19.5 20.75V11.75C19.5 10.5093 18.4907 9.49999 17.25 9.49999ZM10.5 16.8617V19.25C10.5 19.6642 10.1642 20 9.74998 20C9.3358 20 8.99996 19.6642 8.99996 19.25V16.8617C8.1283 16.5516 7.50074 15.7284 7.49998 14.75C7.50096 13.5071 8.50712 12.501 9.74998 12.5C10.9928 12.501 11.999 13.5071 12 14.75C11.9992 15.7284 11.3716 16.5516 10.5 16.8617ZM13.5002 9.49999H6.00021V6.75001C6.00021 4.68167 7.68187 3.00002 9.7502 3.00002C11.8185 3.00002 13.5002 4.68167 13.5002 6.75001V9.49999H13.5002Z" fill="#CECECE"/>
</svg>
