<svg width="24" height="18" viewBox="0 0 24 18" fill="none" xmlns="http://www.w3.org/2000/svg">
<path fill-rule="evenodd" clip-rule="evenodd" d="M0 3.86032C0 3.14849 0.570506 2.57143 1.28548 2.57143H5.7887C6.1421 2.57143 6.55654 2.31547 6.7139 2.00075L7.42895 0.570681C7.58654 0.255501 8.0073 0 8.34561 0H14.7972C15.1459 0 15.5565 0.255957 15.7139 0.570681L16.429 2.00075C16.5865 2.31593 16.9905 2.57143 17.3542 2.57143H21.8574C22.5673 2.57143 23.1429 3.15741 23.1429 3.86032V16.7111C23.1429 17.4229 22.5708 18 21.8656 18H1.27724C0.571846 18 0 17.414 0 16.7111V3.86032ZM11.5714 15.4286C14.4118 15.4286 16.7143 13.126 16.7143 10.2857C16.7143 7.44539 14.4118 5.14286 11.5714 5.14286C8.73111 5.14286 6.42857 7.44539 6.42857 10.2857C6.42857 13.126 8.73111 15.4286 11.5714 15.4286ZM11.5714 14.1429C13.7017 14.1429 15.4286 12.416 15.4286 10.2857C15.4286 8.15547 13.7017 6.42857 11.5714 6.42857C9.44119 6.42857 7.71429 8.15547 7.71429 10.2857C7.71429 12.416 9.44119 14.1429 11.5714 14.1429ZM19.2857 9C19.9958 9 20.5714 8.42437 20.5714 7.71429C20.5714 7.0042 19.9958 6.42857 19.2857 6.42857C18.5756 6.42857 18 7.0042 18 7.71429C18 8.42437 18.5756 9 19.2857 9ZM2.57143 1.92857C2.57143 1.57353 2.84664 1.28571 3.22033 1.28571H4.49396C4.85232 1.28571 5.14286 1.58392 5.14286 1.92857V2.57143H2.57143V1.92857Z" fill="rgba(255, 255, 255, 0.83)"/>
</svg>
