<svg width="92" height="80" viewBox="0 0 92 80" fill="none" xmlns="http://www.w3.org/2000/svg">
<path fill-rule="evenodd" clip-rule="evenodd" d="M42.1006 0.184738C41.28 0.348459 39.9288 0.837282 39.0983 1.27131C38.2677 1.70533 31.5536 6.39409 24.178 11.6906C0.311472 28.8301 1.92519 27.5919 0.903975 29.5535C-0.19449 31.6639 -0.296942 34.0635 0.624469 36.108C1.34595 37.7088 2.33765 38.7095 5.29717 40.8232C6.48251 41.6698 8.45829 43.1032 9.68805 44.009L11.9238 45.6559L9.48149 50.3875C4.40262 60.2261 2.01869 65.1942 1.63076 66.7495C0.0203627 73.2038 5.4666 80.0386 12.1897 79.9998C15.3952 79.9815 16.8955 79.1839 26.0152 72.6511L34.6311 66.4789H46.7471H58.863L66.977 72.2939C71.4398 75.4922 75.8025 78.4846 76.6719 78.9433C78.9577 80.1498 82.4026 80.3226 84.9391 79.3577C87.4171 78.4148 89.8989 76.1377 91.0723 73.7303C91.8694 72.0941 92.0007 71.4212 92 68.9691L91.9993 66.1133L88.5534 59.2795C86.6582 55.5209 84.2557 50.7918 83.2149 48.7703C82.1738 46.7489 79.5694 41.603 77.4272 37.3356C73.1265 28.7673 71.9123 27.0783 69.0281 25.651C67.1391 24.7161 67.1133 24.7134 60.3365 24.7134H53.5395L52.3803 26.9607L51.2215 29.208L46.0823 29.2996L40.9431 29.3911L39.1752 32.6392C38.2031 34.4254 37.4952 36.0302 37.6026 36.2053C37.71 36.3803 40.0714 38.1405 42.8506 40.1168C50.3584 45.4568 50.7212 45.7772 50.7212 47.0636C50.7212 48.1198 50.2106 48.5194 33.7286 60.3554C24.3829 67.0669 16.0885 72.9859 15.2971 73.5085C11.5713 75.9703 6.95498 73.5315 6.95498 69.1021C6.95498 67.1752 6.33728 68.509 15.7888 50.0236L18.9065 43.9265L16.5985 42.2292C15.3289 41.296 12.4589 39.2281 10.2209 37.6346C7.98249 36.0409 5.92482 34.3302 5.6483 33.8333C5.1851 33.0017 5.1977 32.859 5.80844 32.0344C6.17349 31.5419 13.0338 26.4298 21.0537 20.6742C42.4762 5.30017 41.7793 5.76494 43.6513 5.60756C46.6015 5.35998 49.3764 7.93674 49.3896 10.9365C49.3949 12.2015 47.9725 15.3035 44.1068 22.4581L42.4368 25.5487H45.5074H48.578L51.4566 20.1192C53.0398 17.1332 54.502 13.9379 54.7059 13.0191C55.7102 8.49339 53.0461 3.31982 48.6131 1.18644C46.2902 0.0684636 44.2541 -0.244611 42.1006 0.184738ZM62.4087 36.8936C64.4803 39.2301 62.9137 42.8864 59.8302 42.9121C58.2864 42.9248 57.2241 42.2836 56.5215 40.9147C55.8936 39.6908 55.8952 38.8014 56.5278 37.5691C57.6704 35.3422 60.7224 34.9917 62.4087 36.8936ZM29.0274 38.7703C28.1985 39.606 28.3096 43.583 29.1938 44.7157C29.9942 45.7411 31.5735 45.9015 32.7429 45.0759C33.4053 44.6088 33.48 44.271 33.48 41.7464C33.48 39.3109 33.3947 38.8913 32.8387 38.5912C31.8649 38.0663 29.6216 38.1716 29.0274 38.7703ZM72.024 44.5784C74.1467 46.9724 72.461 50.608 69.2283 50.608C67.8858 50.608 66.8086 49.908 66.1368 48.5996C65.5089 47.3757 65.5105 46.4862 66.1431 45.254C67.2857 43.0271 70.3377 42.6766 72.024 44.5784ZM22.6886 45.3723C22.5822 45.8006 22.542 46.8154 22.5994 47.6276L22.7042 49.1044L25.6382 49.2013C29.0838 49.3153 29.5012 49.0894 29.5012 47.1107C29.5012 45.0004 28.8686 44.5938 25.5855 44.5938C23.0314 44.5938 22.872 44.6365 22.6886 45.3723ZM33.0449 45.1928C32.286 46.0378 32.3208 48.0155 33.1073 48.7326C33.6089 49.1903 34.2648 49.2809 36.5058 49.202L39.2823 49.1044V46.9326V44.7608L36.4435 44.6653C34.0191 44.5834 33.5227 44.6606 33.0449 45.1928ZM29.0228 49.346C28.4246 50.2064 28.3092 53.9559 28.8497 54.9736C29.1222 55.4869 29.5519 55.6198 30.9385 55.6198C31.8987 55.6198 32.8632 55.4394 33.0821 55.2189C33.3221 54.977 33.48 53.8049 33.48 52.2636C33.48 49.2311 33.038 48.6032 30.903 48.6032C29.8692 48.6032 29.4137 48.783 29.0228 49.346ZM62.4087 52.2632C63.7675 53.7955 63.6856 55.6529 62.1932 57.1568C60.9234 58.4365 59.6266 58.6313 58.0046 57.786C54.4648 55.9413 56.1817 50.629 60.1707 51.0838C61.1176 51.1917 61.7576 51.5292 62.4087 52.2632Z" fill="url(#paint0_linear_1512_346)"/>
<defs>
<linearGradient id="paint0_linear_1512_346" x1="46" y1="0" x2="46" y2="80" gradientUnits="userSpaceOnUse">
<stop stop-color="#00DEDA"/>
<stop offset="0.505" stop-color="#00D783"/>
<stop offset="1" stop-color="#72D33B"/>
</linearGradient>
</defs>
</svg>
